<svg width="1024" height="1024" viewBox="0 0 1024 1024" fill="none" xmlns="http://www.w3.org/2000/svg">
<path d="M800 416C800 339.618 769.657 266.364 715.647 212.353C661.636 158.343 588.382 128 512 128C435.618 128 362.364 158.343 308.353 212.353C254.343 266.364 224 339.618 224 416C224 534.144 318.528 688.128 512 872.576C705.472 688.128 800 534.144 800 416ZM512 960C277.312 746.688 160 565.312 160 416C160 322.644 197.086 233.111 263.098 167.098C329.111 101.086 418.644 64 512 64C605.356 64 694.889 101.086 760.902 167.098C826.914 233.111 864 322.644 864 416C864 565.312 746.688 746.688 512 960Z" fill="#005DC7"/>
<path d="M512 448C528.974 448 545.253 441.257 557.255 429.255C569.257 417.252 576 400.974 576 384C576 367.026 569.257 350.748 557.255 338.745C545.253 326.743 528.974 320 512 320C495.026 320 478.747 326.743 466.745 338.745C454.743 350.748 448 367.026 448 384C448 400.974 454.743 417.252 466.745 429.255C478.747 441.257 495.026 448 512 448ZM512 512C478.052 512 445.495 498.514 421.49 474.51C397.486 450.505 384 417.948 384 384C384 350.052 397.486 317.495 421.49 293.49C445.495 269.486 478.052 256 512 256C545.948 256 578.505 269.486 602.51 293.49C626.514 317.495 640 350.052 640 384C640 417.948 626.514 450.505 602.51 474.51C578.505 498.514 545.948 512 512 512ZM857.6 704L960 960H672V896H352V960H64L166.4 704H857.6ZM788.672 704H235.328L158.528 896H865.472L788.672 704Z" fill="#005DC7"/>
</svg>
