<svg width="230" height="228" viewBox="0 0 230 228" fill="none" xmlns="http://www.w3.org/2000/svg">
<g clip-path="url(#clip0_207_49)">
<path d="M10.3096 73.4001C23.2396 37.6101 52.8796 9.08012 98.7296 2.01012C145.11 -5.13988 188.23 16.1401 212.18 56.4101C232.28 90.2001 231.69 135.85 216.75 158.41C216.294 157.26 215.763 156.141 215.16 155.06C210.91 148.76 206.4 142.62 202.43 136.15C201.176 133.936 200.698 131.367 201.07 128.85C206.75 95.5801 196.2 68.2201 170.63 46.7701C150 29.5401 126 23.5501 99.5396 28.0001C84.0401 30.5282 69.6088 37.5042 57.9996 48.0801C56.6196 49.8501 54.5796 52.9801 53.4696 54.8101C56.9396 54.9001 58.5296 54.8101 60.4696 54.8101C76.8396 55.0501 93.2096 55.0001 109.57 55.3601C116.493 55.5776 123.231 57.6497 129.08 61.3601C138.17 66.9601 141.08 75.5501 140.5 85.7401C139.99 95.5901 134.93 102.3 126.29 106.55C119.07 110.11 111.29 111.18 103.38 111.12C91.7596 111.04 80.1362 111.013 68.5096 111.04C63.0396 111.04 62.5096 111.6 62.5096 117.1C62.5096 124.22 62.4196 131.35 62.5096 138.47C62.5096 141.16 61.5996 142.39 58.8396 142.35C53.8396 142.28 48.8396 142.28 43.8396 142.35C41.1896 142.35 40.3796 141.11 40.3896 138.66C40.4496 124.66 40.4996 110.66 40.3896 96.6601C40.3896 93.3001 42.0196 92.7801 44.8196 92.7901C63.4396 92.8701 82.0596 92.9701 100.68 92.7901C104.872 92.7656 109.034 92.0909 113.02 90.7901C117.19 89.3901 117.83 85.4401 117.36 81.4201C116.9 77.5601 114.56 75.3401 110.91 74.6201C108.345 74.0976 105.737 73.823 103.12 73.8001C74.1262 73.7401 45.1262 73.7168 16.1196 73.7301C14.3096 73.7301 12.3996 73.5201 10.3096 73.4001Z" fill="#ED1C1F"/>
<path d="M17.5701 92.8501H25.4501C30.0101 92.8501 29.9701 93.0501 29.8001 97.4901C29.4801 106.2 28.7201 114.98 29.4301 123.62C31.2501 145.62 41.5001 163.62 57.6401 178.13C75.2301 193.96 96.2301 201.35 119.87 199.93C139.63 198.75 157.3 191.93 171.8 177.93C175.8 174.11 175.8 174.07 172.8 169.67C164.8 158.07 156.8 146.477 148.8 134.89C145.8 130.57 145.22 130.55 142.34 134.74C133.58 147.49 124.53 160.06 116.22 173.1C112.62 178.76 107.96 180.73 101.89 180.54C97.6601 180.4 93.4301 179.86 89.2201 179.33C85.7301 178.9 85.4801 178.11 87.5801 175.09C94.2001 165.563 100.827 156.043 107.46 146.53C114.74 136.09 121.89 125.53 129.39 115.3C131.908 111.758 134.981 108.644 138.49 106.08C143.41 102.62 149.32 102.58 153.84 106.49C158.365 110.559 162.374 115.167 165.78 120.21C178.61 138.48 191.07 157.02 203.87 175.31C205.96 178.31 205.87 180.31 203.8 183.18C190.505 201.693 171.277 215.102 149.31 221.18C114.05 231.31 80.7401 226.89 50.2601 206.18C30.7301 192.9 17.3201 174.5 8.89008 152.45C2.18814 135.128 0.247557 116.326 3.27006 98.0001C4.00006 93.3701 4.62008 92.8401 9.32008 92.8301L17.5701 92.8501Z" fill="black"/>
</g>
<defs>
<clipPath id="clip0_207_49">
<rect width="230" height="228" fill="white"/>
</clipPath>
</defs>
</svg>
